<svg width="64" height="65" viewBox="0 0 64 65" fill="none" xmlns="http://www.w3.org/2000/svg">
<g clip-path="url(#clip0)" filter="url(#filter0_b)">
<path d="M63.6 18.5L54.9 1.8C54.3 0.8 53.2 0.1 52 0H12C10.8 0.1 9.7 0.7 9 1.8L0.299997 18.2C-0.200003 19.3 -0.100003 20.6 0.499997 21.6L30.5 63.4C30.9 64.1 31.7 64.3 32.4 63.9C32.6 63.8 32.8 63.6 32.9 63.4L63.4 21.9C64 20.9 64.1 19.6 63.6 18.5ZM48.8 4L44.8 15.4L35.9 4H48.8ZM41.7 18H23.1L31.9 5.4L41.7 18ZM28 4L19.6 16.1L15.6 4H28ZM11.8 5.2L16 18H4.9L11.8 5.2ZM5.8 22H17.3L27.3 52L5.8 22ZM31.8 52.8L21.6 22H42.6L31.8 52.8ZM36.3 52L46.8 22H58.4L36.3 52ZM48.2 18L52.5 5.7L58.9 18H48.2Z" fill="white"/>
</g>
<defs>
<filter id="filter0_b" x="-4" y="-4" width="72" height="72.1" filterUnits="userSpaceOnUse" color-interpolation-filters="sRGB">
<feFlood flood-opacity="0" result="BackgroundImageFix"/>
<feGaussianBlur in="BackgroundImage" stdDeviation="2"/>
<feComposite in2="SourceAlpha" operator="in" result="effect1_backgroundBlur"/>
<feBlend mode="normal" in="SourceGraphic" in2="effect1_backgroundBlur" result="shape"/>
</filter>
<clipPath id="clip0">
<rect width="64" height="64.1" fill="white"/>
</clipPath>
</defs>
</svg>
